<?xml version="1.0" standalone="no"?>
<!DOCTYPE svg PUBLIC "-//W3C//DTD SVG 20010904//EN"
 "http://www.w3.org/TR/2001/REC-SVG-20010904/DTD/svg10.dtd">
<svg version="1.0" xmlns="http://www.w3.org/2000/svg"
 width="256.000000pt" height="256.000000pt" viewBox="0 0 256.000000 256.000000"
 preserveAspectRatio="xMidYMid meet">

<g transform="translate(0.000000,256.000000) scale(0.100000,-0.100000)"
fill="#000000" stroke="none">
<path d="M1013 2407 c-145 -83 -263 -154 -263 -157 0 -4 881 -516 943 -547 4
-2 7 135 7 305 l0 310 -206 118 c-114 66 -210 120 -213 121 -3 1 -124 -66
-268 -150z"/>
<path d="M1850 1681 c0 -303 2 -551 5 -551 3 0 125 69 270 152 l265 153 0 241
0 242 -247 143 c-137 78 -258 149 -270 157 l-23 14 0 -551z"/>
<path d="M380 2041 l-205 -118 -3 -313 -2 -312 32 20 c18 11 226 131 463 267
237 136 436 253 443 260 11 10 -38 42 -248 164 -144 83 -265 151 -269 151 -3
0 -98 -54 -211 -119z"/>
<path d="M432 1278 l-262 -151 2 -245 3 -244 255 -149 c140 -81 261 -148 268
-149 9 0 12 115 12 545 0 300 -3 545 -7 545 -5 0 -126 -68 -271 -152z"/>
<path d="M1903 981 c-255 -147 -465 -269 -467 -272 -4 -3 459 -276 514 -303
13 -6 69 22 229 114 l211 122 0 304 c0 237 -3 304 -12 303 -7 0 -221 -121
-475 -268z"/>
<path d="M860 551 l0 -309 209 -121 210 -121 265 153 c146 83 265 154 265 157
1 4 -582 343 -891 518 l-58 33 0 -310z"/>
</g>
</svg>
