<?xml version="1.0" encoding="utf-8"?>
<!-- Generator: Adobe Illustrator 24.0.0, SVG Export Plug-In . SVG Version: 6.00 Build 0)  -->
<svg version="1.1" id="katman_1" xmlns="http://www.w3.org/2000/svg" xmlns:xlink="http://www.w3.org/1999/xlink" x="0px" y="0px"
	 viewBox="0 0 600 493" style="enable-background:new 0 0 600 493;" xml:space="preserve">
<style type="text/css">
	.st0{fill:url(#SVGID_1_);}
	.st1{fill:#EC1C24;}
	.st2{fill:url(#SVGID_2_);}
	.st3{font-family:'ConfigRoundedExtrabold';}
	.st4{font-size:55.6114px;}
</style>
<g>
	<title>alarrab</title>
	<g id="Layer_1-2">
		
			<linearGradient id="SVGID_1_" gradientUnits="userSpaceOnUse" x1="-2308.3357" y1="-4252.1724" x2="-2303.946" y2="-4259.7715" gradientTransform="matrix(0.49 -0.87 0.87 0.49 5057.5698 220.5901)">
			<stop  offset="0" style="stop-color:#BE1E2D"/>
			<stop  offset="1" style="stop-color:#000000"/>
		</linearGradient>
		<path class="st0" d="M233,153L233,153l3,4.6c0.1,0.4,0.3,0.8,0.6,1.1c0.1,0.1,0.2,0.3,0.3,0.4L230,153H233z"/>
		<path class="st1" d="M379.2,96.1l-23.3,41.8c-6.3,11.3-14.5,14.6-18.9,15.6c-0.2,0-0.4,0-0.6,0l-96-0.5h-0.3h-6.9h-0.1l-63.2-0.2
			l0.2,0.3c0,0-16.8,3.3-11,14c-0.1-0.1-0.2-0.1-0.3-0.2c-0.1-0.2-0.1-0.3-0.3-0.4c0-0.1,0-0.1-0.1-0.2c0-0.1,0-0.2-0.1-0.2
			c-0.8-1.5-1.4-3.1-1.8-4.7l-0.4-1.3c-0.3-1.3-0.6-2.6-0.7-4c-0.1-1-0.1-2,0-3l0.8-0.3h-1c-0.1-3.7,0.6-7.4,1.9-10.8l27.2-49
			c2.2-2.8,4.9-5.2,7.9-7c3.1-1.9,6.5-3.3,10-4.1l0,0L371.5,81C377,81.8,385.5,84.9,379.2,96.1z"/>
		
			<linearGradient id="SVGID_2_" gradientUnits="userSpaceOnUse" x1="-1774.0411" y1="-1010.9765" x2="-1661.8544" y2="-1205.2961" gradientTransform="matrix(0.87 -0.5 0.5 0.87 2334.7603 340.79)">
			<stop  offset="0.57" style="stop-color:#BE1E2D"/>
			<stop  offset="1" style="stop-color:#701521"/>
		</linearGradient>
		<path class="st2" d="M414.4,144.4L352.2,262c0,0-0.1,0.2-0.3,0.2L326.8,307l0.1,0.1l-28.4,50.8c-10.6,15.3-21.5,4.5-25.2,0
			c-0.5-0.6-1-1.2-1.4-1.8L158.7,166.7c0.1,0.1,0.2,0.2,0.3,0.2c-5.7-10.7,11-14,11-14l-0.2-0.2L233,153l0.1,0.1h6.9
			c-4.7,0.3-4.6,2.8-4,4.6c0.3,0.5,0.4,0.8,0.6,1.1c0,0.1,0.1,0.3,0.2,0.4l75.9,124.5c0.3,0.6,0.6,1.1,1,1.6c3,4.2,12,14.2,22.8-3.1
			l12.1-21.7c0-0.1,0.1-0.3,0.1-0.3l62.2-117.7c0.5-0.9,1.7-1.3,2.6-0.8l0,0C414.6,142.2,414.9,143.4,414.4,144.4L414.4,144.4z"/>
	</g>
</g>
<text transform="matrix(1 0 0 1 92.0039 425.3145)" class="st3 st4">YOUR COMPANY</text>
</svg>
